<svg xmlns="http://www.w3.org/2000/svg" width="68.437" height="68.437" viewBox="0 0 68.437 68.437"><defs><style>.a{fill:#f9f7f7;}.b{fill:#e84a5f;}</style></defs><g transform="translate(-563.797 -187.563)"><path class="a" d="M620.926,198.38a11.135,11.135,0,0,1-4.718,9.441q-.762.427-1.5.89-.875.548-1.715,1.147a35.569,35.569,0,0,0-14.98,29.032A17.109,17.109,0,1,1,574,223.232c.992-.419,2.046-.63,3.036-1.013h0q.546-.211,1.082-.438a35.453,35.453,0,0,0,20.511-23.87c.016-.057.026-.1.038-.154a11.22,11.22,0,0,1,.547-2.622s0,0,0,0a11.15,11.15,0,0,1,21.7,3.247Z"/><path class="b" d="M785.442,330.734v3.251a8.593,8.593,0,1,1,0-3.251Z" transform="translate(-153.208 -101.985)"/></g></svg>